<?xml version="1.0" encoding="utf-8"?>
<svg viewBox="107.575 43.135 297 297" height="384" width="384" id="svg2" version="1.1" xmlns="http://www.w3.org/2000/svg">
  <title>Caltech Icon</title>
  <g transform="matrix(1.333333, 0, 0, -1.333333, 36.381382, 384)" id="g10">
    <g transform="scale(0.1)" id="g12">
      <path id="path14" style="fill:#FF6C0C;fill-opacity:1;fill-rule:nonzero;stroke:none" d="m 1582.13,630.398 c -50.63,7.231 -101.23,14.454 -151.86,32.532 -348.89,106.672 -574.872,428.45 -573.059,775.54 0,370.59 305.509,817.12 799.029,815.3 155.48,3.62 339.85,-57.84 468.22,-142.81 l -7.23,348.9 c -150.04,54.24 -271.17,90.39 -457.37,90.39 C 998.215,2557.48 540.855,1986.23 542.66,1436.66 540.855,738.871 1119.34,333.93 1679.75,333.93 c 184.38,1.789 348.9,48.8 498.94,124.718 l 28.93,374.223 c -184.39,-141 -310.94,-184.391 -459.18,-202.473 0,0 -78.03,-13.628 -166.31,0"/>
      <path id="path16" style="fill:#FF6C0C;fill-opacity:1;fill-rule:nonzero;stroke:none" d="m 1554.98,1960.1 c 0,-165.12 -160,-296.18 -108.94,-435.77 0,144.69 194.04,287.68 194.04,459.59 0,17.03 -3.41,54.47 -10.21,78.3 l 6.8,-3.4 c 54.47,-90.22 90.22,-202.56 90.22,-313.2 0,-226.39 -119.15,-296.18 -119.15,-490.23 0,-47.66 15.32,-86.82 22.13,-105.54 h -6.81 c -159.99,95.33 -304.7,211.08 -304.7,372.78 0,171.92 163.42,270.65 236.62,437.47 z m 188.93,-10.22 c 100.44,-125.96 199.17,-323.42 194.06,-473.21 -5.11,-161.7 -156.6,-267.24 -296.18,-326.82 h -3.41 c -5.11,11.91 -8.51,56.18 -8.51,78.29 0,166.83 153.19,285.99 153.19,503.86 3.4,81.71 -13.61,153.2 -47.65,217.88 h 8.5"/>
      <path id="path18" style="fill:#FF6C0C;fill-opacity:1;fill-rule:nonzero;stroke:none" d="m 1623.06,1149.85 h 6.81 c -6.81,18.72 -22.13,57.88 -22.13,105.54 0,194.05 119.15,263.84 119.15,490.23 0,110.64 -35.75,222.98 -90.22,313.2 l -6.8,3.4 c 6.8,-23.83 10.21,-61.27 10.21,-78.3 0,-171.91 -194.04,-314.9 -194.04,-459.59 -51.06,139.59 108.94,270.65 108.94,435.77 -73.2,-166.82 -236.62,-265.55 -236.62,-437.47 0,-161.7 144.71,-277.45 304.7,-372.78"/>
      <path id="path20" style="fill:#FF6C0C;fill-opacity:1;fill-rule:nonzero;stroke:none" d="m 1783.06,1732 c 0,-217.87 -153.19,-337.03 -153.19,-503.86 0,-22.11 3.4,-66.38 8.51,-78.29 h 3.41 c 139.58,59.58 291.07,165.12 296.18,326.82 5.11,149.79 -93.62,347.25 -194.06,473.21 h -8.5 c 34.04,-64.68 51.05,-136.17 47.65,-217.88"/>
      <path id="path22" style="fill:#FF6C0C;fill-opacity:1;fill-rule:nonzero;stroke:none" d="m 1711.58,785.738 c 0,0 -6.79,139.332 -6.81,144.543 59.58,10.207 102.11,22.117 199.15,62.981 71.5,27.238 142.98,71.488 188.94,105.528 17.01,11.91 17.01,17.01 13.62,23.83 h -946.41 c -6.81,-6.82 -3.4,-11.92 13.62,-23.83 47.66,-34.04 120.86,-76.6 194.04,-105.528 80.01,-30.653 139.58,-52.774 194.06,-62.981 l -6.81,-144.543 c 83.12,-12.847 156.6,0 156.6,0"/>
    </g>
  </g>
</svg>
