<?xml version="1.0" encoding="utf-8"?>
<svg version="1.1" x="0px" y="0px" viewBox="4.425 14.595 91.444 70.671" enable-background="new 0 0 100 100" xmlns="http://www.w3.org/2000/svg">
  <desc>Icon by SlideGenius for the Noun Project. Originally obtained on 2021-02-09 from https://thenounproject.com/term/megaphone/505098/</desc>
  <title>Megaphone</title>
  <path d="M84.21,59.26l-0.935,0.603c-0.734,0.473-1.722,0.259-2.195-0.475L56.003,20.46c-0.473-0.734-0.259-1.722,0.475-2.195  l0.935-0.603c0.734-0.473,1.722-0.259,2.195,0.475l25.076,38.927C85.158,57.799,84.944,58.787,84.21,59.26z" style=""/>
  <g>
    <path d="M95.046,39.439L95.046,39.439c-0.199-0.752-0.873-1.299-1.498-1.215l-14.123,1.899c-0.625,0.084-0.973,0.768-0.773,1.52v0   c0.199,0.752,0.873,1.299,1.498,1.215l14.123-1.899C94.898,40.875,95.246,40.191,95.046,39.439z" style=""/>
    <path d="M71.156,30.007L71.156,30.007c-0.602-0.492-0.821-1.332-0.487-1.866l7.568-12.074c0.335-0.534,1.101-0.568,1.704-0.076v0   c0.602,0.492,0.821,1.332,0.487,1.866L72.86,29.931C72.525,30.465,71.758,30.5,71.156,30.007z" style=""/>
    <path d="M90.796,26.031l-0.403-0.625c-0.316-0.491-0.977-0.634-1.468-0.318L77.1,32.705c-0.491,0.316-0.634,0.977-0.318,1.468   l0.403,0.625c0.316,0.491,0.977,0.634,1.468,0.318l11.825-7.618C90.969,27.182,91.112,26.521,90.796,26.031z" style=""/>
  </g>
  <path d="M14.598,83.503l-0.935,0.603c-0.734,0.473-1.722,0.259-2.195-0.475l-6.319-9.809c-0.473-0.734-0.259-1.722,0.475-2.195  l0.935-0.603c0.734-0.473,1.722-0.259,2.195,0.475l6.319,9.809C15.546,82.042,15.332,83.03,14.598,83.503z" style=""/>
  <path d="M54.393,22.552L11.057,70.481l5.895,9.151l11.136-3.553l0.818,2.516c0.806,2.482,3.481,3.845,5.963,3.039l11.876-3.859  c0.397-0.129,0.765-0.305,1.1-0.522c1.762-1.135,2.616-3.356,1.939-5.44l-0.782-2.408l29.508-9.416L54.393,22.552z M46.019,73.036  c0.13,0.399-0.098,0.843-0.497,0.974l-11.877,3.86c-0.399,0.129-0.845-0.098-0.975-0.497l-0.811-2.497l13.371-4.267L46.019,73.036z" style=""/>
  <text style="font-family: &quot;Helvetica Neue&quot;, Helvetica, Arial-Unicode, Arial, sans-serif; font-size: 5px; font-weight: 700; white-space: pre;" x="0" y="115">Created by SlideGenius</text>
  <text style="font-family: &quot;Helvetica Neue&quot;, Helvetica, Arial-Unicode, Arial, sans-serif; font-size: 5px; font-weight: 700; white-space: pre;" x="0" y="120">from the Noun Project</text>
</svg>